<?xml version="1.0" standalone="no"?>
<!DOCTYPE svg PUBLIC "-//W3C//DTD SVG 20010904//EN"
 "http://www.w3.org/TR/2001/REC-SVG-20010904/DTD/svg10.dtd">
<svg version="1.0" xmlns="http://www.w3.org/2000/svg"
 width="8033.000000pt" height="8380.000000pt" viewBox="0 0 8033.000000 8380.000000"
 preserveAspectRatio="xMidYMid meet">

<g transform="translate(0.000000,8380.000000) scale(0.100000,-0.100000)"
fill="#000000" stroke="none">
<path d="M9778 63211 c-146 -47 -261 -166 -303 -315 -13 -43 -16 -84 -13 -150
3 -80 8 -101 41 -170 60 -127 167 -215 302 -251 53 -13 435 -15 3442 -15 2439
0 3397 3 3435 11 83 17 182 74 240 138 166 182 164 449 -4 627 -62 65 -115 99
-199 125 -59 18 -158 19 -3472 18 -3281 0 -3414 -1 -3469 -18z"/>
<path d="M63615 63216 c-213 -68 -346 -256 -332 -470 3 -47 14 -105 27 -139
43 -115 149 -221 268 -269 l57 -23 3410 -3 c2296 -1 3426 1 3458 8 126 27 266
136 320 252 109 232 14 499 -219 615 l-78 38 -3435 2 c-2760 1 -3444 -1 -3476
-11z"/>
<path d="M18330 58470 c0 -4369 0 -4410 20 -4410 14 0 20 -9 24 -32 3 -18 33
-397 66 -843 l61 -810 685 -5126 c376 -2820 684 -5130 684 -5133 0 -3 -741 -5
-1646 -4 l-1647 3 7 -1530 c3 -841 9 -1974 12 -2517 l7 -988 1966 -2 1966 -3
440 -3302 439 -3303 2315 0 2314 0 -6 43 c-11 77 -4877 32301 -4883 32335 l-6
32 -1409 0 -1409 0 0 -4410z"/>
<path d="M26410 46675 l0 -16205 2380 0 2380 0 0 6480 0 6480 78 0 c138 0 532
20 722 35 731 60 1445 202 2180 432 1085 339 2082 950 2902 1775 766 772 1402
1826 1851 3073 426 1182 646 2691 647 4430 0 1645 -193 3063 -577 4230 -282
859 -726 1752 -1198 2413 -264 370 -443 582 -754 892 -680 678 -1447 1187
-2309 1531 -616 246 -1485 459 -2276 559 -625 78 -694 80 -3533 80 l-2493 0 0
-16205z m5370 11330 c1434 -126 2240 -687 2634 -1833 180 -526 275 -1223 317
-2342 13 -353 6 -1654 -10 -1935 -60 -1004 -146 -1550 -318 -2009 -133 -353
-303 -627 -533 -857 -372 -372 -848 -575 -1590 -678 -277 -38 -739 -71 -1012
-71 l-98 0 0 4877 0 4876 223 -7 c122 -3 296 -13 387 -21z"/>
<path d="M40310 46675 l0 -16205 2380 0 2380 0 0 6479 0 6478 218 7 c763 23
1422 111 2117 281 934 229 1678 542 2375 999 1259 827 2153 1935 2812 3486
497 1170 747 2375 840 4045 17 310 17 1572 0 1870 -51 875 -120 1454 -252
2115 -145 724 -320 1297 -589 1928 -547 1281 -1227 2227 -2161 3004 -582 484
-1268 879 -1986 1144 -639 235 -1502 430 -2269 514 -516 56 -387 53 -3232 57
l-2633 4 0 -16206z m5160 11345 c1051 -60 1740 -314 2247 -831 391 -398 646
-963 773 -1714 178 -1046 210 -3112 69 -4390 -75 -684 -183 -1101 -391 -1508
-187 -367 -456 -659 -786 -854 -366 -216 -849 -346 -1512 -407 -181 -17 -549
-36 -702 -36 l-98 0 0 4875 0 4875 113 0 c61 0 191 -5 287 -10z"/>
<path d="M54210 46675 l0 -16205 2385 0 2385 0 0 6479 0 6478 218 7 c287 9
493 22 742 47 971 95 1992 355 2780 706 l130 58 -2 8928 -3 8928 -90 40 c-273
122 -622 246 -965 343 -724 204 -1312 307 -2160 378 -107 8 -838 13 -2782 15
l-2638 4 0 -16206z m5165 11345 c1026 -56 1728 -312 2225 -810 416 -417 682
-1017 804 -1810 198 -1291 194 -3645 -10 -4810 -118 -676 -360 -1205 -715
-1559 -368 -369 -851 -575 -1594 -680 -261 -37 -740 -71 -1012 -71 l-93 0 0
4875 0 4875 103 0 c56 0 188 -5 292 -10z"/>
<path d="M10253 61775 c-231 -63 -381 -289 -343 -518 23 -134 124 -278 236
-335 110 -56 -116 -52 3129 -50 l2980 3 78 37 c238 114 332 384 216 625 -29
62 -140 173 -202 202 -112 54 78 51 -3097 50 -2502 0 -2953 -2 -2997 -14z"/>
<path d="M64071 61774 c-204 -55 -341 -232 -341 -443 0 -210 131 -387 329
-445 49 -14 342 -16 3020 -16 l2966 0 67 24 c123 43 210 124 270 252 31 65 33
75 33 179 0 91 -4 120 -23 167 -47 118 -152 222 -269 270 l-58 23 -2970 2
c-2572 2 -2977 0 -3024 -13z"/>
<path d="M10650 60439 c-137 -22 -280 -132 -341 -262 -125 -269 43 -593 335
-646 33 -6 131 -11 218 -11 l158 0 0 -12569 0 -12569 -232 -4 c-209 -4 -239
-7 -293 -27 -255 -93 -397 -358 -330 -616 50 -189 227 -347 420 -375 98 -14
5247 -14 5335 0 191 31 358 180 414 369 20 67 21 198 2 267 -37 139 -142 267
-268 328 -100 48 -160 56 -395 56 l-203 0 0 12570 0 12570 173 0 c255 0 347
28 459 141 240 239 148 640 -174 760 l-63 24 -2580 1 c-1474 1 -2604 -2 -2635
-7z m1580 -13489 l0 -12570 -170 0 -170 0 0 12570 0 12570 170 0 170 0 0
-12570z m1220 0 l0 -12570 -175 0 -175 0 0 12570 0 12570 175 0 175 0 0
-12570z m1150 0 l0 -12570 -145 0 -145 0 0 12570 0 12570 145 0 145 0 0
-12570z"/>
<path d="M64470 60439 c-119 -20 -242 -103 -311 -210 -89 -139 -92 -335 -6
-481 59 -102 195 -195 316 -218 30 -5 125 -10 212 -10 l159 0 0 -12569 0
-12569 -232 -4 c-208 -4 -239 -7 -292 -26 -83 -31 -146 -74 -210 -142 -254
-276 -133 -719 229 -833 l70 -22 2675 0 2675 0 72 26 c152 56 268 172 321 322
20 57 25 91 25 162 -1 197 -99 362 -271 453 -97 52 -161 62 -399 62 l-213 0 0
12570 0 12570 169 0 c199 0 252 8 347 55 118 58 214 179 243 306 59 255 -118
516 -379 558 -83 14 -5119 13 -5200 0z m1590 -13489 l0 -12570 -175 0 -175 0
0 12570 0 12570 175 0 175 0 0 -12570z m1210 0 l0 -12570 -175 0 -175 0 0
12570 0 12570 175 0 175 0 0 -12570z m1150 0 l0 -12570 -140 0 -140 0 0 12570
0 12570 140 0 140 0 0 -12570z"/>
<path d="M10543 33146 c-136 -33 -267 -134 -331 -253 -154 -289 -11 -637 303
-736 l70 -22 2665 0 c2559 0 2667 1 2725 18 97 30 171 75 235 144 98 104 140
210 140 347 -1 100 -12 153 -53 236 -40 81 -131 174 -213 217 -127 67 84 63
-2839 62 -2103 -1 -2661 -3 -2702 -13z"/>
<path d="M64360 33144 c-96 -25 -161 -64 -236 -138 -164 -164 -200 -387 -95
-594 58 -115 170 -211 300 -254 l66 -23 2620 -3 c1719 -2 2649 1 2705 7 152
18 289 104 374 233 107 164 107 386 -2 554 -72 111 -204 200 -331 224 -36 7
-949 10 -2700 9 -2286 0 -2653 -2 -2701 -15z"/>
<path d="M9727 31214 c-230 -399 -417 -728 -414 -730 2 -2 1759 -3 3905 -2
l3901 3 -382 727 -382 728 -3105 0 -3105 0 -418 -726z"/>
<path d="M63956 31918 c-26 -42 -826 -1430 -826 -1434 0 -2 1757 -4 3905 -4
2148 0 3905 2 3905 4 0 2 -172 331 -381 730 l-382 726 -3103 0 -3104 0 -14
-22z"/>
<path d="M4915 16549 c-120 -16 -256 -57 -360 -109 -484 -240 -760 -780 -758
-1485 1 -322 72 -617 241 -1001 142 -321 227 -462 765 -1269 187 -280 369
-556 404 -613 143 -230 264 -492 305 -659 37 -152 27 -405 -23 -607 -43 -168
-112 -271 -218 -323 -49 -25 -67 -28 -151 -28 -84 0 -102 3 -152 28 -76 37
-149 118 -198 221 -76 158 -104 312 -120 660 -6 127 -12 232 -15 234 -5 6
-975 -85 -982 -92 -10 -9 16 -466 37 -647 59 -519 240 -879 551 -1099 143
-101 289 -161 487 -201 151 -31 508 -38 670 -15 427 63 738 281 922 646 118
236 177 495 201 884 24 378 -25 641 -193 1041 -147 352 -359 705 -858 1430
-338 492 -464 697 -560 915 -109 245 -134 376 -119 617 23 383 129 548 350
546 110 -1 195 -67 263 -202 76 -150 110 -321 126 -630 6 -113 13 -207 15
-209 6 -6 975 84 982 91 9 10 -16 366 -37 521 -24 181 -53 314 -97 446 -170
509 -494 811 -961 896 -104 19 -418 27 -517 13z"/>
<path d="M8235 16545 c-496 -80 -878 -455 -1020 -1000 -54 -210 -69 -331 -69
-580 0 -197 3 -247 22 -347 68 -359 256 -809 510 -1218 35 -58 246 -377 467
-710 221 -333 431 -654 466 -715 134 -234 235 -477 258 -625 6 -36 11 -110 11
-165 0 -315 -85 -586 -212 -673 -104 -72 -246 -80 -365 -22 -132 65 -235 255
-277 510 -18 111 -36 351 -36 498 0 94 -1 102 -19 102 -27 0 -875 -78 -928
-85 l-43 -6 0 -112 c0 -134 15 -352 35 -537 51 -447 190 -772 426 -995 198
-187 437 -291 747 -325 166 -18 508 -8 634 19 247 53 428 150 599 320 190 188
310 434 373 757 44 231 51 307 51 584 0 239 -2 276 -24 380 -62 307 -234 710
-471 1105 -79 131 -403 619 -718 1081 -274 403 -437 712 -493 938 -59 239 -16
636 85 783 106 155 338 157 450 5 101 -138 154 -323 176 -612 5 -74 10 -177
10 -227 0 -90 1 -93 23 -93 31 0 895 79 936 86 l34 5 -6 162 c-24 618 -172
1073 -443 1356 -184 193 -384 300 -644 346 -133 23 -429 29 -545 10z"/>
<path d="M11560 16549 c-302 -37 -603 -194 -767 -401 -190 -238 -314 -547
-358 -891 -23 -178 -23 -4257 0 -4434 73 -566 350 -1008 740 -1183 170 -77
351 -110 595 -110 252 0 414 32 595 119 334 159 585 499 690 933 63 262 60
121 60 2458 0 1998 -1 2132 -18 2244 -83 544 -337 950 -712 1139 -95 47 -226
93 -327 112 -98 20 -388 28 -498 14z m299 -985 c104 -31 189 -147 228 -311 17
-74 18 -184 18 -2213 0 -2008 -1 -2139 -18 -2210 -33 -144 -99 -249 -181 -293
-34 -18 -57 -22 -142 -22 -94 0 -104 2 -149 30 -86 53 -148 170 -175 326 -8
45 -10 694 -8 2209 3 2022 4 2148 21 2205 70 235 216 336 406 279z"/>
<path d="M14875 16549 c-287 -39 -543 -163 -717 -348 -159 -167 -303 -454
-367 -728 -52 -225 -51 -137 -51 -2430 0 -1418 3 -2158 10 -2210 31 -231 87
-427 171 -599 196 -403 488 -625 904 -689 139 -22 468 -16 585 10 432 96 752
398 913 861 94 272 107 393 107 1030 l0 514 -469 0 -470 0 -4 -547 c-3 -469
-6 -556 -20 -602 -45 -150 -132 -257 -232 -286 -80 -24 -214 -17 -271 13 -56
29 -110 92 -149 177 -69 147 -65 -1 -65 2325 0 2324 -4 2181 64 2325 39 83
103 158 160 188 61 32 209 31 283 -2 89 -39 168 -143 207 -270 19 -62 20 -98
24 -608 l3 -543 470 0 469 0 0 509 c0 553 -6 644 -56 851 -86 353 -268 651
-507 831 -129 97 -310 176 -492 214 -95 20 -395 29 -500 14z"/>
<path d="M28135 16554 c-202 -28 -317 -60 -456 -129 -228 -112 -377 -264 -518
-525 -94 -175 -166 -413 -196 -643 -23 -179 -23 -4257 0 -4434 52 -398 203
-738 426 -962 231 -231 505 -331 909 -331 252 0 414 32 595 119 334 159 585
499 690 933 63 262 60 121 60 2458 0 1998 -1 2132 -18 2244 -83 544 -337 950
-712 1139 -95 47 -226 93 -327 112 -79 16 -384 29 -453 19z m254 -990 c104
-31 189 -147 228 -311 17 -74 18 -184 18 -2213 0 -2008 -1 -2139 -18 -2210
-33 -144 -99 -249 -181 -293 -34 -18 -57 -22 -142 -22 -94 0 -104 2 -149 30
-86 53 -148 170 -175 326 -8 45 -10 694 -8 2209 3 2022 4 2148 21 2205 70 235
216 336 406 279z"/>
<path d="M36960 16545 c-186 -27 -380 -100 -530 -200 -234 -155 -430 -470
-525 -841 -68 -264 -66 -176 -63 -2524 l3 -2115 23 -120 c69 -379 199 -658
406 -873 178 -185 407 -295 693 -333 116 -15 453 -6 548 16 249 56 424 153
596 332 235 245 377 587 418 1007 15 150 15 4153 1 4297 -24 237 -82 452 -174
644 -132 275 -304 461 -536 579 -204 104 -336 135 -590 141 -118 3 -206 0
-270 -10z m369 -1000 c78 -43 135 -128 173 -262 l23 -78 0 -2165 0 -2165 -23
-78 c-29 -102 -54 -149 -109 -208 -53 -57 -109 -79 -203 -79 -94 0 -150 22
-203 79 -54 57 -78 103 -109 202 l-23 74 -3 2120 c-2 1487 0 2145 8 2203 27
205 122 349 253 383 59 15 163 2 216 -26z"/>
<path d="M60040 16549 c-203 -26 -400 -98 -555 -202 -202 -136 -388 -406 -489
-708 -43 -129 -82 -317 -95 -469 -15 -157 -15 -4089 0 -4255 21 -243 91 -510
182 -691 191 -380 448 -585 839 -671 67 -15 128 -18 318 -18 258 0 324 9 490
67 381 133 673 485 793 953 60 236 67 330 67 908 l0 497 -469 0 -469 0 -5
-537 c-3 -459 -6 -547 -20 -601 -34 -127 -109 -237 -190 -278 -63 -33 -199
-44 -271 -24 -130 36 -230 207 -256 435 -8 72 -10 682 -8 2150 3 1926 5 2054
22 2124 36 149 111 268 199 317 47 26 61 29 147 28 102 0 169 -21 218 -67 41
-37 102 -135 123 -194 32 -95 39 -210 39 -705 l0 -478 470 0 470 0 0 495 c0
622 -12 742 -101 1011 -176 532 -545 851 -1054 913 -102 12 -298 13 -395 0z"/>
<path d="M78625 16549 c-261 -36 -482 -147 -676 -339 -261 -260 -403 -620
-439 -1113 -25 -344 43 -681 220 -1097 140 -330 242 -502 761 -1280 490 -736
572 -874 672 -1126 64 -158 81 -249 80 -414 -1 -369 -99 -629 -264 -700 -121
-52 -280 -30 -371 50 -160 140 -232 387 -246 842 -4 119 -10 219 -14 223 -6 6
-812 -63 -946 -81 l-43 -5 6 -162 c23 -568 81 -880 216 -1150 140 -279 380
-491 669 -589 179 -60 278 -73 570 -73 286 0 352 8 524 62 435 135 733 505
835 1035 50 261 72 590 52 788 -31 298 -133 604 -329 984 -142 273 -328 569
-686 1091 -348 506 -437 646 -548 870 -133 264 -168 395 -168 617 0 197 19
313 71 453 30 80 105 156 173 175 63 17 152 16 198 -3 87 -36 164 -139 216
-287 52 -149 73 -292 88 -602 l6 -138 27 0 c60 1 952 88 958 94 11 11 -17 391
-41 558 -85 577 -303 955 -679 1175 -85 50 -247 106 -372 128 -107 20 -419 28
-520 14z"/>
<path d="M1045 16468 c-2 -13 -234 -1546 -515 -3408 -281 -1862 -513 -3402
-517 -3422 l-6 -38 491 0 490 0 6 38 c3 20 44 327 91 682 47 355 88 655 90
668 l5 22 485 0 485 0 5 -22 c2 -13 43 -313 90 -668 47 -355 88 -662 91 -682
l6 -38 490 0 491 0 -6 38 c-3 20 -236 1560 -517 3422 -280 1862 -512 3395
-515 3408 l-5 22 -615 0 -615 0 -5 -22z m663 -2033 c7 -93 78 -658 157 -1256
80 -597 145 -1090 145 -1097 0 -9 -84 -12 -345 -12 -237 0 -345 3 -345 11 0 5
65 497 144 1092 80 595 150 1156 156 1247 7 91 14 171 16 178 2 8 15 12 31 10
l28 -3 13 -170z"/>
<path d="M17047 16483 c-4 -3 -7 -1554 -7 -3445 l0 -3438 505 0 505 0 0 3445
0 3445 -498 0 c-274 0 -502 -3 -505 -7z"/>
<path d="M19621 16423 c-6 -38 -238 -1573 -516 -3413 -277 -1840 -507 -3360
-510 -3377 l-6 -33 490 0 491 0 4 23 c3 12 44 315 91 672 47 358 88 665 91
683 l6 32 484 0 c379 0 486 -3 489 -12 5 -14 185 -1364 185 -1385 0 -10 105
-13 490 -13 450 0 490 1 490 17 0 21 -1029 6844 -1035 6861 -3 9 -136 12 -619
12 l-614 0 -11 -67z m668 -1980 c7 -93 77 -655 157 -1249 79 -595 144 -1091
144 -1103 0 -21 -1 -21 -346 -21 l-346 0 6 38 c34 217 287 2163 296 2272 17
232 16 230 49 230 l28 0 12 -167z"/>
<path d="M21837 16483 c-4 -3 -7 -237 -7 -520 l0 -513 480 0 480 0 0 -2925 0
-2925 505 0 505 0 0 2925 0 2925 475 0 475 0 0 520 0 520 -1453 0 c-800 0
-1457 -3 -1460 -7z"/>
<path d="M25257 16483 c-4 -3 -7 -1554 -7 -3445 l0 -3438 505 0 505 0 0 3445
0 3445 -498 0 c-274 0 -502 -3 -505 -7z"/>
<path d="M30330 13045 l0 -3445 465 0 465 0 0 1956 0 1955 27 -3 c27 -3 29 -8
71 -163 23 -88 263 -964 532 -1947 270 -982 490 -1789 490 -1792 0 -3 203 -6
450 -6 l450 0 0 3445 0 3445 -460 0 -460 0 0 -1956 0 -1955 -32 3 -32 3 -39
145 c-45 172 -1003 3668 -1019 3723 l-11 37 -449 0 -448 0 0 -3445z"/>
<path d="M39227 16483 c-4 -3 -7 -1554 -7 -3445 l0 -3438 505 0 505 0 2 1498
3 1497 468 3 467 2 0 520 0 520 -470 0 -470 0 2 903 3 902 698 3 697 2 0 520
0 520 -1198 0 c-659 0 -1202 -3 -1205 -7z"/>
<path d="M43920 13046 l0 -3446 505 0 505 0 0 1380 0 1380 85 0 c185 0 489 63
672 140 403 168 704 499 877 963 194 521 194 1402 0 1924 -208 562 -595 916
-1139 1041 -224 52 -263 54 -902 59 l-603 5 0 -3446z m1150 2404 c284 -30 445
-136 538 -355 58 -139 88 -454 79 -820 -12 -430 -56 -603 -189 -736 -26 -26
-76 -61 -110 -78 -75 -35 -226 -67 -360 -75 l-98 -5 0 1039 0 1040 23 0 c12 0
65 -5 117 -10z"/>
<path d="M47835 16478 c-5 -16 -1035 -6849 -1035 -6865 0 -10 105 -13 489 -13
l490 0 6 53 c4 28 46 345 94 702 l86 650 487 3 486 2 6 -27 c3 -16 44 -318 91
-673 46 -355 87 -660 90 -677 l6 -33 491 0 490 0 -6 33 c-3 17 -235 1555 -516
3417 -281 1862 -513 3397 -516 3413 l-6 27 -614 0 c-483 0 -615 -3 -619 -12z
m649 -1900 c3 -18 10 -100 16 -183 6 -82 76 -637 156 -1231 79 -595 144 -1085
144 -1088 0 -3 -155 -6 -345 -6 -324 0 -345 1 -345 18 0 10 65 503 144 1097
80 594 150 1158 157 1253 l12 172 28 0 c24 0 29 -5 33 -32z"/>
<path d="M50650 13046 l0 -3446 505 0 505 0 0 1455 0 1455 134 0 c119 0 134
-2 138 -17 3 -10 121 -665 264 -1455 l259 -1438 503 0 c446 0 502 2 502 15 0
9 -144 759 -320 1668 l-320 1652 27 20 c114 80 256 262 327 417 49 107 110
305 140 450 42 204 57 341 63 588 13 520 -58 935 -218 1269 -225 471 -590 714
-1189 792 -49 6 -347 13 -702 16 l-618 5 0 -3446z m1221 2418 c209 -39 347
-163 445 -400 69 -169 102 -414 90 -694 -13 -328 -70 -532 -199 -706 -51 -69
-151 -146 -228 -175 -54 -21 -217 -49 -281 -49 l-38 0 0 1020 0 1020 64 0 c35
0 101 -7 147 -16z"/>
<path d="M53780 15970 l0 -520 475 0 475 0 0 -2925 0 -2925 505 0 505 0 2
2923 3 2922 478 3 477 2 0 520 0 520 -1460 0 -1460 0 0 -520z"/>
<path d="M57200 13045 l0 -3445 505 0 505 0 -2 3443 -3 3442 -502 3 -503 2 0
-3445z"/>
<path d="M62200 13045 l0 -3445 505 0 505 0 0 3445 0 3445 -505 0 -505 0 0
-3445z"/>
<path d="M63968 16484 c-5 -4 -8 -1555 -8 -3446 l0 -3438 505 0 505 0 2 1378
3 1377 125 7 c572 29 1034 279 1314 710 117 181 221 429 270 649 52 231 61
337 61 704 0 271 -4 365 -18 465 -40 280 -96 470 -207 695 -144 294 -302 477
-550 637 -149 97 -291 156 -486 202 -235 55 -274 58 -914 63 -327 3 -598 1
-602 -3z m1227 -1045 c211 -34 355 -134 435 -301 81 -168 105 -376 97 -831 -6
-381 -23 -496 -90 -636 -39 -80 -123 -168 -196 -205 -29 -15 -87 -36 -128 -46
-76 -20 -318 -44 -334 -34 -11 6 -12 2057 -2 2068 8 8 125 0 218 -15z"/>
<path d="M67876 16458 c-3 -18 -235 -1556 -516 -3418 -281 -1862 -513 -3397
-516 -3412 l-6 -28 491 0 491 0 4 23 c3 12 44 315 91 672 47 358 88 665 91
683 l6 32 484 0 c379 0 486 -3 489 -12 5 -14 185 -1364 185 -1385 0 -10 105
-13 490 -13 460 0 490 1 490 18 0 21 -1029 6842 -1035 6860 -3 9 -136 12 -619
12 l-614 0 -6 -32z m654 -1875 c1 -119 48 -515 169 -1418 78 -577 141 -1059
141 -1072 l0 -23 -346 0 -346 0 6 38 c29 178 287 2158 296 2262 19 248 17 240
51 240 25 0 29 -4 29 -27z"/>
<path d="M70690 13045 l0 -3445 465 0 465 0 0 1956 0 1955 27 -3 c25 -3 29
-10 49 -83 13 -44 253 -923 535 -1952 l513 -1873 448 0 448 0 0 3445 0 3445
-460 0 -460 0 0 -1956 0 -1955 -32 3 c-32 3 -32 3 -61 113 -16 61 -251 920
-522 1910 -271 990 -498 1819 -504 1843 l-12 42 -449 0 -450 0 0 -3445z"/>
<path d="M74140 15970 l0 -520 478 -2 477 -3 3 -2922 2 -2923 505 0 505 0 0
2925 0 2925 475 0 475 0 0 520 0 520 -1460 0 -1460 0 0 -520z"/>
<path d="M33002 5799 c-134 -17 -288 -71 -406 -140 -269 -161 -468 -531 -515
-961 -15 -134 -15 -3441 0 -3576 30 -274 101 -483 233 -682 186 -279 440 -412
816 -427 238 -10 455 39 624 138 89 53 248 210 309 304 134 210 202 425 227
720 6 74 10 284 8 485 l-3 355 -387 3 -387 2 -3 -452 c-4 -434 -5 -456 -26
-519 -30 -91 -90 -171 -148 -199 -56 -27 -161 -37 -222 -21 -84 23 -162 125
-199 262 -16 59 -18 186 -21 1754 -2 1120 0 1720 7 1780 14 122 34 182 82 255
55 82 100 111 183 117 127 11 207 -29 274 -135 64 -100 65 -112 70 -610 l4
-452 386 2 387 3 3 355 c2 202 -2 411 -8 485 -55 650 -388 1071 -910 1150
-101 16 -275 18 -378 4z"/>
<path d="M42748 5795 c-216 -35 -440 -148 -559 -283 -107 -122 -226 -341 -274
-507 -14 -49 -35 -142 -46 -205 -19 -112 -19 -163 -16 -1935 l3 -1820 22 -96
c66 -289 182 -514 346 -674 126 -122 271 -198 454 -238 132 -29 415 -31 542
-4 467 100 775 496 839 1079 7 65 11 662 11 1802 0 1805 0 1819 -46 2001 -79
317 -241 577 -444 715 -90 61 -216 118 -328 146 -123 32 -368 41 -504 19z
m300 -811 c76 -31 130 -106 169 -229 17 -57 18 -141 18 -1850 l0 -1790 -28
-80 c-49 -144 -113 -204 -227 -213 -145 -11 -235 67 -280 243 -20 77 -20 110
-20 1844 0 1942 -3 1831 61 1951 37 70 74 107 125 125 52 19 136 18 182 -1z"/>
<path d="M45506 5799 c-136 -20 -285 -72 -400 -140 -213 -127 -392 -401 -475
-727 -51 -199 -51 -187 -51 -2018 0 -1140 4 -1737 11 -1802 38 -351 167 -642
371 -838 132 -127 272 -199 469 -241 117 -25 400 -25 517 0 428 92 709 403
823 914 21 92 23 129 26 586 l4 487 -385 0 -386 0 0 -392 c0 -422 -7 -522 -40
-611 -31 -82 -107 -162 -173 -182 -150 -45 -265 1 -335 133 -71 133 -66 -1
-70 1887 -3 1718 -2 1796 33 1912 21 70 87 167 134 199 49 32 143 43 219 24
112 -26 202 -156 222 -320 5 -46 10 -261 10 -477 l0 -393 385 0 385 0 0 444
c0 484 -6 557 -65 761 -34 119 -129 312 -202 410 -194 262 -489 397 -853 394
-63 -1 -142 -5 -174 -10z"/>
<path d="M13940 2910 l0 -2840 415 0 415 0 0 2840 0 2840 -415 0 -415 0 0
-2840z"/>
<path d="M15390 2910 l0 -2840 380 0 380 0 0 1611 0 1610 27 -3 c25 -3 28 -10
56 -113 16 -60 213 -782 438 -1603 225 -821 409 -1495 409 -1498 0 -2 167 -4
370 -4 l370 0 0 2840 0 2840 -380 0 -380 0 0 -1610 0 -1610 -24 0 c-15 0 -27
7 -30 18 -3 9 -28 100 -55 202 -51 191 -780 2854 -807 2948 l-15 52 -370 0
-369 0 0 -2840z"/>
<path d="M19990 2910 l0 -2840 415 0 415 0 0 1134 0 1134 88 7 c151 11 321 44
446 86 201 67 341 153 491 304 106 105 183 217 259 376 131 272 180 527 180
939 0 412 -49 667 -180 939 -77 162 -153 271 -264 381 -183 182 -384 285 -672
344 -146 30 -274 36 -723 36 l-455 0 0 -2840z m1073 1964 c176 -45 293 -165
341 -349 53 -210 59 -738 9 -960 -33 -150 -112 -263 -217 -311 -68 -31 -163
-51 -283 -60 l-93 -7 0 858 0 858 91 -6 c50 -4 118 -14 152 -23z"/>
<path d="M22752 3408 l3 -2343 23 -108 c85 -398 283 -697 554 -833 191 -96
448 -134 698 -104 274 34 504 164 662 375 150 199 236 430 267 717 8 66 11
826 11 2368 l0 2270 -415 0 -415 0 -2 -2317 -3 -2318 -27 -81 c-49 -142 -114
-203 -228 -212 -145 -11 -235 67 -280 243 -20 77 -20 111 -20 2382 l0 2303
-415 0 -415 0 2 -2342z"/>
<path d="M25580 2916 l0 -2836 565 0 c337 0 605 4 662 11 414 46 736 273 914
646 198 415 237 1170 83 1631 -105 315 -259 550 -431 661 l-53 34 123 127
c270 276 361 486 387 889 11 180 1 438 -25 596 -79 493 -316 809 -720 960 -86
33 -252 72 -385 91 -90 13 -222 17 -617 21 l-503 5 0 -2836z m1032 1993 c143
-30 266 -132 337 -279 66 -136 76 -198 75 -475 0 -262 -11 -332 -70 -452 -93
-192 -228 -281 -436 -291 l-108 -5 0 757 0 756 75 0 c40 0 98 -5 127 -11z m93
-2304 c87 -42 171 -130 223 -235 76 -155 102 -307 102 -600 0 -294 -25 -440
-102 -597 -48 -100 -134 -194 -209 -231 -62 -30 -142 -44 -231 -40 l-73 3 -3
855 c-1 470 0 861 3 869 4 11 28 13 118 9 97 -4 120 -8 172 -33z"/>
<path d="M28390 2910 l0 -2840 970 0 970 0 0 385 0 385 -550 0 -550 0 0 2455
0 2455 -420 0 -420 0 0 -2840z"/>
<path d="M30670 2910 l0 -2840 420 0 420 0 0 2840 0 2840 -420 0 -420 0 0
-2840z"/>
<path d="M36342 2913 l3 -2838 418 -3 417 -2 0 1135 c0 901 3 1135 13 1135 6
0 63 5 125 10 205 18 404 71 557 147 403 202 654 582 742 1129 15 88 18 171
18 424 0 253 -3 336 -18 424 -97 600 -399 1012 -862 1179 -94 33 -277 73 -397
86 -54 6 -303 11 -558 11 l-460 0 2 -2837z m1073 1962 c91 -24 165 -63 221
-120 127 -126 165 -297 165 -737 0 -416 -33 -566 -148 -689 -76 -82 -186 -121
-380 -135 l-93 -7 0 858 0 858 88 -6 c48 -4 114 -14 147 -22z"/>
<path d="M39100 2910 l0 -2840 418 2 417 3 3 1198 2 1197 109 0 c96 0 110 -2
114 -17 3 -10 101 -550 218 -1200 l213 -1183 413 0 c382 0 413 1 413 17 0 9
-117 622 -260 1362 -144 741 -262 1351 -263 1358 -1 7 24 34 56 61 201 170
324 458 383 892 21 151 23 531 5 690 -85 737 -402 1140 -990 1260 -164 33
-300 40 -783 40 l-468 0 0 -2840z m1000 2000 c186 -29 324 -163 399 -387 71
-213 72 -673 0 -885 -85 -255 -231 -376 -475 -395 l-84 -6 0 842 0 841 48 0
c26 0 76 -5 112 -10z"/>
<path d="M47300 3480 c0 -1542 3 -2302 11 -2368 38 -351 167 -642 371 -838
132 -127 272 -199 469 -241 117 -25 400 -25 517 0 205 44 368 133 502 273 161
169 264 377 322 651 l23 108 3 2343 2 2342 -415 0 -415 0 0 -2303 c0 -2271 0
-2305 -20 -2382 -45 -176 -135 -254 -280 -243 -114 9 -179 70 -228 212 l-27
81 -3 2318 -2 2317 -415 0 -415 0 0 -2270z"/>
<path d="M50140 2911 l0 -2841 415 0 415 0 0 1200 0 1201 112 -3 113 -3 217
-1195 c119 -657 217 -1196 217 -1197 1 -2 188 -3 417 -3 l416 0 -5 23 c-11 44
-527 2712 -527 2722 1 6 24 28 52 49 161 125 287 373 353 694 35 171 46 265
52 472 19 614 -124 1101 -406 1380 -169 168 -371 261 -681 316 -79 14 -186 18
-627 21 l-533 5 0 -2841z m1014 1994 c99 -21 152 -50 227 -124 153 -152 221
-413 205 -784 -15 -367 -122 -604 -317 -703 -56 -28 -173 -53 -251 -54 l-48 0
0 840 0 840 58 0 c31 0 88 -7 126 -15z"/>
<path d="M52940 2910 l0 -2840 955 0 955 0 0 430 0 430 -540 0 -540 0 0 780 0
780 390 0 390 0 0 455 0 455 -390 0 -390 0 0 745 0 745 540 0 540 0 0 430 0
430 -955 0 -955 0 0 -2840z"/>
<path d="M55310 2910 l0 -2840 385 0 385 0 0 1905 0 1905 25 0 c30 0 23 26 70
-305 20 -143 145 -989 278 -1880 l243 -1620 176 -3 176 -2 6 32 c11 64 535
3585 547 3681 12 91 14 97 36 97 l23 0 0 -1905 0 -1905 385 0 385 0 0 2840 0
2840 -508 0 -507 0 -248 -1302 c-136 -717 -254 -1355 -262 -1418 -30 -230 -35
-233 -59 -37 -13 105 -477 2591 -511 2735 l-5 22 -510 0 -510 0 0 -2840z"/>
<path d="M59050 2910 l0 -2840 955 0 955 0 0 430 0 430 -535 0 -535 0 0 780 0
780 385 0 385 0 0 455 0 455 -385 0 -385 0 0 745 0 745 535 0 535 0 0 430 0
430 -955 0 -955 0 0 -2840z"/>
<path d="M61422 2913 l3 -2838 383 -3 382 -2 0 1610 0 1610 23 0 c22 0 28 -18
111 -322 48 -178 245 -901 439 -1608 l353 -1285 372 -3 372 -2 0 2840 0 2840
-385 0 -385 0 0 -1610 0 -1610 -23 0 c-21 0 -26 10 -50 103 -14 56 -212 780
-439 1609 l-413 1508 -373 0 -372 0 2 -2837z"/>
<path d="M64270 5320 l0 -430 395 0 395 0 0 -2410 0 -2410 415 0 415 0 0 2410
0 2410 395 0 395 0 0 430 0 430 -1205 0 -1205 0 0 -430z"/>
</g>
</svg>
